%
M48
M72
T01C0.0320
T02C0.0354
T03C0.0394
%
T01
X35490Y12850
X33490Y12850
X26090Y12850
X24090Y12850
X14690Y12850
X16690Y12850
X5290Y12850
X7290Y12850
X7290Y30850
X5290Y30850
X16690Y30850
X14690Y30850
X26090Y30850
X24090Y30850
X35490Y30850
X33490Y30850
T02
X5030Y2200
X7450Y2200
X14430Y20200
X16850Y20200
X23830Y20200
X26250Y20200
X33230Y20200
X35650Y20200
X7450Y20200
X5030Y20200
X33230Y2200
X35650Y2200
X26250Y2200
X23830Y2200
X16850Y2200
X14430Y2200
T03
X5030Y9550
X7450Y9550
X14430Y9550
X16850Y9550
X23830Y9550
X26250Y9550
X33230Y9550
X35650Y9550
X35650Y27550
X33230Y27550
X23830Y27550
X26250Y27550
X16850Y27550
X14430Y27550
X5030Y27550
X7450Y27550
M30
