<?xml version="1.0" encoding="utf-8" ?>
<svg baseProfile="full" height="48.26" version="1.1" width="37.338" xmlns="http://www.w3.org/2000/svg" xmlns:ev="http://www.w3.org/2001/xml-events" xmlns:xlink="http://www.w3.org/1999/xlink"><defs><style type="text/css"><![CDATA[.red { fill: red; stroke=none; }
.green { fill: green; stroke: none; }
.blue { fill: blue; stroke: yellow; stroke-width: 5; }
.yellow { fill: yellow; stroke: none; }
.text { font-family: serif; fill: white; }
]]></style><symbol id="0204/5" viewBox="-2.54,-0.889,2.54,0.889"><line stroke="rgb(182,182,182)" stroke-width="0.508" x1="2.54" x2="2.032" y1="0.0" y2="0.0" /><line stroke="rgb(182,182,182)" stroke-width="0.508" x1="-2.54" x2="-2.032" y1="0.0" y2="0.0" /><line stroke="rgb(51,22,244)" stroke-width="0.1524" x1="-1.778" x2="-1.524" y1="0.635" y2="0.889" /><line stroke="rgb(51,22,244)" stroke-width="0.1524" x1="-1.778" x2="-1.524" y1="-0.635" y2="-0.889" /><line stroke="rgb(51,22,244)" stroke-width="0.1524" x1="1.524" x2="1.778" y1="-0.889" y2="-0.635" /><line stroke="rgb(51,22,244)" stroke-width="0.1524" x1="1.524" x2="1.778" y1="0.889" y2="0.635" /><line stroke="rgb(182,182,182)" stroke-width="0.1524" x1="-1.778" x2="-1.778" y1="-0.635" y2="0.635" /><line stroke="rgb(51,22,244)" stroke-width="0.1524" x1="-1.524" x2="-1.27" y1="0.889" y2="0.889" /><line stroke="rgb(51,22,244)" stroke-width="0.1524" x1="-1.143" x2="-1.27" y1="0.762" y2="0.889" /><line stroke="rgb(51,22,244)" stroke-width="0.1524" x1="-1.524" x2="-1.27" y1="-0.889" y2="-0.889" /><line stroke="rgb(51,22,244)" stroke-width="0.1524" x1="-1.143" x2="-1.27" y1="-0.762" y2="-0.889" /><line stroke="rgb(51,22,244)" stroke-width="0.1524" x1="1.143" x2="1.27" y1="0.762" y2="0.889" /><line stroke="rgb(51,22,244)" stroke-width="0.1524" x1="1.143" x2="-1.143" y1="0.762" y2="0.762" /><line stroke="rgb(51,22,244)" stroke-width="0.1524" x1="1.143" x2="1.27" y1="-0.762" y2="-0.889" /><line stroke="rgb(51,22,244)" stroke-width="0.1524" x1="1.143" x2="-1.143" y1="-0.762" y2="-0.762" /><line stroke="rgb(51,22,244)" stroke-width="0.1524" x1="1.524" x2="1.27" y1="0.889" y2="0.889" /><line stroke="rgb(51,22,244)" stroke-width="0.1524" x1="1.524" x2="1.27" y1="-0.889" y2="-0.889" /><line stroke="rgb(182,182,182)" stroke-width="0.1524" x1="1.778" x2="1.778" y1="-0.635" y2="0.635" /></symbol><symbol id="smd1.27-2.54" viewBox="10000,10000,-10000,-10000" /></defs><rect fill="grey" height="100%" width="100%" x="0" y="0" /><use height="1.778" transform="rotate(0 11.9126 29.845)" width="5.08" x="9.372599999999998" xlink:href="#0204/5" y="28.956" /><use height="-20000" transform="rotate(0 18.2626 33.655)" width="-20000" x="10018.2626" xlink:href="#smd1.27-2.54" y="10033.655" /><use height="-20000" transform="rotate(0 18.2626 33.655)" width="-20000" x="10018.2626" xlink:href="#smd1.27-2.54" y="10033.655" /><use height="-20000" transform="rotate(200 5.8166 26.162)" width="-20000" x="10005.8166" xlink:href="#smd1.27-2.54" y="10026.162" /><use height="-20000" transform="rotate(160 5.8166 26.162)" width="-20000" x="10005.8166" xlink:href="#smd1.27-2.54" y="10026.162" /><use height="-20000" transform="rotate(90 14.859 19.9644)" width="-20000" x="10014.859" xlink:href="#smd1.27-2.54" y="10019.9644" /><use height="-20000" transform="rotate(90 8.7122 19.9898)" width="-20000" x="10008.7122" xlink:href="#smd1.27-2.54" y="10019.9898" /><use height="-20000" transform="rotate(270 8.7122 19.9644)" width="-20000" x="10008.7122" xlink:href="#smd1.27-2.54" y="10019.9644" /><use height="-20000" transform="rotate(270 14.8844 19.9644)" width="-20000" x="10014.8844" xlink:href="#smd1.27-2.54" y="10019.9644" /><line stroke="rgb(204,158,10)" stroke-width="1.0" x1="9.2646" x2="14.2646" y1="33.542" y2="33.542" /><line stroke="rgb(204,158,10)" stroke-width="1.0" x1="14.2646" x2="14.1986" y1="33.542" y2="33.02" /><line stroke="rgb(204,158,10)" stroke-width="1.0" x1="14.1986" x2="15.2146" y1="33.02" y2="31.75" /><line stroke="rgb(204,158,10)" stroke-width="1.0" x1="15.2146" x2="16.961059375" y1="31.75" y2="31.68095" /><line stroke="rgb(204,158,10)" stroke-width="1.0" x1="16.961059375" x2="17.205609375" y1="31.68095" y2="31.846278125" /><line stroke="rgb(204,158,10)" stroke-width="1.0" x1="17.205609375" x2="17.2646" y1="31.846278125" y2="32.512" /><line stroke="rgb(204,158,10)" stroke-width="1.0" x1="19.4056" x2="19.4056" y1="31.115" y2="35.0012" /><line stroke="rgb(204,158,10)" stroke-width="1.0" x1="19.4056" x2="19.193934375" y1="35.0012" y2="35.306" /><line stroke="rgb(204,158,10)" stroke-width="1.0" x1="19.193934375" x2="17.7582125" y1="35.306" y2="35.306" /><line stroke="rgb(204,158,10)" stroke-width="1.0" x1="17.7582125" x2="17.250225" y1="35.306" y2="34.7944" /><line stroke="rgb(204,158,10)" stroke-width="1.0" x1="17.250225" x2="17.2646" y1="34.7944" y2="32.512" /><line stroke="rgb(204,158,10)" stroke-width="1.0" x1="15.0466" x2="17.517440625" y1="28.28" y2="29.55" /><line stroke="rgb(204,158,10)" stroke-width="1.0" x1="17.517440625" x2="19.4056" y1="29.55" y2="31.115" /><line stroke="rgb(204,158,10)" stroke-width="1.0" x1="15.0466" x2="14.4526" y1="28.28" y2="26.416" /><line stroke="rgb(204,158,10)" stroke-width="1.0" x1="14.4526" x2="14.8336" y1="26.416" y2="25.273" /><line stroke="rgb(204,158,10)" stroke-width="1.0" x1="14.8336" x2="16.764" y1="25.273" y2="19.05" /><line stroke="rgb(204,158,10)" stroke-width="1.0" x1="13.208" x2="12.7646" y1="19.05" y2="23.526" /><line stroke="rgb(204,158,10)" stroke-width="1.0" x1="12.7646" x2="10.7646" y1="23.526" y2="23.526" /><line stroke="rgb(204,158,10)" stroke-width="1.0" x1="10.7646" x2="10.287" y1="23.526" y2="19.05" /><line stroke="rgb(204,158,10)" stroke-width="1.0" x1="6.731" x2="8.6106" y1="19.05" y2="25.527" /><line stroke="rgb(204,158,10)" stroke-width="1.0" x1="8.6106" x2="9.3726" y1="25.527" y2="27.686" /><line stroke="rgb(204,158,10)" stroke-width="1.0" x1="9.3726" x2="7.3152" y1="27.686" y2="27.7622" /><line stroke="rgb(204,158,10)" stroke-width="1.0" x1="7.3152" x2="7.1628" y1="27.7622" y2="27.1272" /><line stroke="rgb(204,158,10)" stroke-width="1.0" x1="7.1628" x2="7.037321875" y1="27.1272" y2="26.62875625" /><line stroke="rgb(204,158,10)" stroke-width="1.0" x1="7.037321875" x2="5.759115625" y1="26.62875625" y2="24.5166" /><line stroke="rgb(204,158,10)" stroke-width="1.0" x1="5.759115625" x2="4.91716875" y1="24.5166" y2="24.796" /><line stroke="rgb(204,158,10)" stroke-width="1.0" x1="4.91716875" x2="4.594353125" y1="24.796" y2="25.152490625" /><line stroke="rgb(204,158,10)" stroke-width="1.0" x1="4.594353125" x2="4.4196" y1="25.152490625" y2="25.72510625" /><line stroke="rgb(204,158,10)" stroke-width="1.0" x1="4.4196" x2="4.4196" y1="25.72510625" y2="26.397921875" /><line stroke="rgb(204,158,10)" stroke-width="1.0" x1="4.4196" x2="5.696228125" y1="26.397921875" y2="29.779421875" /><line stroke="rgb(204,158,10)" stroke-width="1.0" x1="5.696228125" x2="6.188190625" y1="29.779421875" y2="31.007025" /><line stroke="rgb(204,158,10)" stroke-width="1.0" x1="6.188190625" x2="6.604359375" y1="31.007025" y2="31.882221875" /><line stroke="rgb(204,158,10)" stroke-width="1.0" x1="6.604359375" x2="7.625809375" y1="31.882221875" y2="32.258" /><line stroke="rgb(204,158,10)" stroke-width="1.0" x1="7.625809375" x2="8.3566" y1="32.258" y2="32.258" /><line stroke="rgb(204,158,10)" stroke-width="1.0" x1="8.3566" x2="9.3726" y1="32.258" y2="33.274" /><line stroke="rgb(204,158,10)" stroke-width="1.0" x1="9.3726" x2="9.2646" y1="33.274" y2="33.542" /><line stroke="rgb(182,182,182)" stroke-width="0.254" x1="10.2646" x2="10.5186" y1="34.018" y2="35.486" /><line stroke="rgb(182,182,182)" stroke-width="0.254" x1="11.7646" x2="12.0186" y1="33.256" y2="35.732" /><line stroke="rgb(182,182,182)" stroke-width="0.254" x1="12.0186" x2="12.5186" y1="35.732" y2="35.732" /><line stroke="rgb(182,182,182)" stroke-width="0.254" x1="12.7646" x2="13.0186" y1="33.51" y2="35.478" /><line stroke="rgb(182,182,182)" stroke-width="0.254" x1="13.7646" x2="14.0186" y1="34.01" y2="35.486" /><line stroke="rgb(182,182,182)" stroke-width="0.254" x1="14.2646" x2="14.5186" y1="34.518" y2="35.494" /><line stroke="rgb(182,182,182)" stroke-width="0.254" x1="15.0186" x2="14.7646" y1="35.526" y2="34.748" /><line stroke="rgb(182,182,182)" stroke-width="0.254" x1="8.7646" x2="9.0186" y1="34.772" y2="35.51" /><line stroke="rgb(182,182,182)" stroke-width="0.254" x1="9.5186" x2="9.2646" y1="35.494" y2="34.272" /><line stroke="rgb(182,182,182)" stroke-width="0.254" x1="9.7646" x2="10.0186" y1="33.756" y2="35.486" /><line stroke="rgb(182,182,182)" stroke-width="0.254" x1="12.2646" x2="12.5186" y1="33.772" y2="35.732" /><line stroke="rgb(182,182,182)" stroke-width="0.254" x1="13.2646" x2="13.5186" y1="33.764" y2="35.486" /><line stroke="rgb(182,182,182)" stroke-width="0.254" x1="11.2646" x2="11.5186" y1="33.502" y2="35.478" /><line stroke="rgb(182,182,182)" stroke-width="0.254" x1="10.7646" x2="11.0186" y1="33.248" y2="35.478" /><line stroke="rgb(182,182,182)" stroke-width="0.4064" x1="5.715" x2="18.415" y1="18.669" y2="18.669" /><line stroke="rgb(182,182,182)" stroke-width="0.4064" x1="18.415" x2="18.415" y1="18.669" y2="4.318" /><line stroke="rgb(182,182,182)" stroke-width="0.4064" x1="18.415" x2="5.715" y1="4.318" y2="4.318" /><line stroke="rgb(182,182,182)" stroke-width="0.4064" x1="5.715" x2="5.715" y1="4.318" y2="18.669" /><line stroke="rgb(200,200,200)" stroke-width="0.254" x1="11.4686" x2="12.6116" y1="33.258" y2="33.512" /><line stroke="rgb(200,200,200)" stroke-width="0.254" x1="11.2646" x2="11.7646" y1="35.272" y2="34.272" /><line stroke="rgb(200,200,200)" stroke-width="0.254" x1="11.7646" x2="11.2646" y1="34.272" y2="34.272" /><line stroke="rgb(200,200,200)" stroke-width="0.254" x1="11.5186" x2="10.6216" y1="33.24" y2="33.51" /><line stroke="rgb(200,200,200)" stroke-width="0.254" x1="13.2966" x2="12.6536" y1="34.002" y2="33.51" /><line stroke="rgb(200,200,200)" stroke-width="0.254" x1="13.0426" x2="12.1666" y1="33.748" y2="33.528" /><line stroke="rgb(200,200,200)" stroke-width="0.254" x1="12.1666" x2="11.3836" y1="33.528" y2="33.256" /><line stroke="rgb(182,182,182)" stroke-width="0.254" x1="8.7326" x2="14.8286" y1="35.788" y2="35.732" /><line stroke="rgb(200,200,200)" stroke-width="0.3048" x1="8.6106" x2="14.7066" y1="37.338" y2="37.592" /><line stroke="rgb(200,200,200)" stroke-width="0.3048" x1="8.6106" x2="14.7066" y1="37.592" y2="37.846" /><line stroke="rgb(200,200,200)" stroke-width="0.3048" x1="14.7066" x2="13.9446" y1="37.846" y2="38.608" /><line stroke="rgb(200,200,200)" stroke-width="0.3048" x1="13.9446" x2="13.1826" y1="38.608" y2="39.116" /><line stroke="rgb(200,200,200)" stroke-width="0.3048" x1="13.1826" x2="12.1666" y1="39.116" y2="39.37" /><line stroke="rgb(200,200,200)" stroke-width="0.3048" x1="12.1666" x2="10.8966" y1="39.37" y2="39.37" /><line stroke="rgb(200,200,200)" stroke-width="0.3048" x1="10.8966" x2="9.8806" y1="39.37" y2="38.862" /><line stroke="rgb(200,200,200)" stroke-width="0.3048" x1="9.8806" x2="8.6106" y1="38.862" y2="37.592" /><line stroke="rgb(204,158,10)" stroke-width="1.0" x1="6.731" x2="2.54" y1="19.05" y2="19.05" /><line stroke="rgb(204,158,10)" stroke-width="1.0" x1="13.208" x2="10.287" y1="19.05" y2="19.05" /><line stroke="rgb(204,158,10)" stroke-width="1.0" x1="21.336" x2="16.764" y1="19.05" y2="19.05" /><line stroke="rgb(252,98,237)" stroke-width="1.0" x1="-3.81" x2="-0.254" y1="45.72" y2="45.72" /><line stroke="rgb(252,98,237)" stroke-width="1.0" x1="-0.254" x2="23.876" y1="45.72" y2="45.72" /><line stroke="rgb(204,158,10)" stroke-width="1.0" x1="2.54" x2="2.54" y1="19.05" y2="41.91" /><line stroke="rgb(204,158,10)" stroke-width="1.0" x1="21.336" x2="21.336" y1="19.05" y2="41.91" /><line stroke="rgb(204,158,10)" stroke-width="1.0" x1="2.54" x2="21.336" y1="41.91" y2="41.91" /><line stroke="rgb(252,98,237)" stroke-width="1.0" x1="23.876" x2="23.876" y1="-2.54" y2="0.0" /><line stroke="rgb(252,98,237)" stroke-width="1.0" x1="23.876" x2="23.876" y1="0.0" y2="45.72" /><line stroke="rgb(252,98,237)" stroke-width="1.0" x1="23.876" x2="33.528" y1="45.72" y2="45.72" /><line stroke="rgb(252,98,237)" stroke-width="1.0" x1="30.48" x2="-3.81" y1="19.05" y2="19.05" /><line stroke="rgb(252,98,237)" stroke-width="1.0" x1="-0.254" x2="-0.254" y1="-2.54" y2="0.0" /><line stroke="rgb(252,98,237)" stroke-width="1.0" x1="-0.254" x2="-0.254" y1="0.0" y2="45.72" /><line stroke="rgb(252,98,237)" stroke-width="1.0" x1="-0.254" x2="23.876" y1="0.0" y2="0.0" /></svg>